<svg xmlns="http://www.w3.org/2000/svg" xmlns:xlink="http://www.w3.org/1999/xlink" width="500" zoomAndPan="magnify" viewBox="0 0 375 374.999991" height="500" preserveAspectRatio="xMidYMid meet" version="1.2"><defs><clipPath id="4d032576e3"><path d="M 78.65625 23.113281 L 296.15625 23.113281 L 296.15625 215.863281 L 78.65625 215.863281 Z M 78.65625 23.113281 "/></clipPath></defs><g id="c2478c6210"><g style="fill:#2c3e50;fill-opacity:1;"><g transform="translate(123.337436, 264.806263)"><path style="stroke:none" d="M 12.046875 0.46875 C 9.910156 0.46875 7.847656 0.179688 5.859375 -0.390625 C 3.878906 -0.972656 2.285156 -1.726562 1.078125 -2.65625 L 3.1875 -7.34375 C 4.34375 -6.5 5.710938 -5.820312 7.296875 -5.3125 C 8.890625 -4.800781 10.484375 -4.546875 12.078125 -4.546875 C 13.847656 -4.546875 15.15625 -4.804688 16 -5.328125 C 16.84375 -5.847656 17.265625 -6.546875 17.265625 -7.421875 C 17.265625 -8.066406 17.015625 -8.597656 16.515625 -9.015625 C 16.015625 -9.441406 15.375 -9.78125 14.59375 -10.03125 C 13.8125 -10.289062 12.753906 -10.578125 11.421875 -10.890625 C 9.367188 -11.378906 7.6875 -11.863281 6.375 -12.34375 C 5.070312 -12.832031 3.953125 -13.613281 3.015625 -14.6875 C 2.078125 -15.769531 1.609375 -17.207031 1.609375 -19 C 1.609375 -20.5625 2.03125 -21.976562 2.875 -23.25 C 3.726562 -24.519531 5.003906 -25.523438 6.703125 -26.265625 C 8.410156 -27.015625 10.5 -27.390625 12.96875 -27.390625 C 14.6875 -27.390625 16.363281 -27.179688 18 -26.765625 C 19.644531 -26.359375 21.082031 -25.769531 22.3125 -25 L 20.390625 -20.265625 C 17.898438 -21.679688 15.410156 -22.390625 12.921875 -22.390625 C 11.179688 -22.390625 9.894531 -22.109375 9.0625 -21.546875 C 8.226562 -20.984375 7.8125 -20.238281 7.8125 -19.3125 C 7.8125 -18.382812 8.289062 -17.695312 9.25 -17.25 C 10.207031 -16.800781 11.675781 -16.359375 13.65625 -15.921875 C 15.707031 -15.429688 17.382812 -14.941406 18.6875 -14.453125 C 20 -13.972656 21.125 -13.207031 22.0625 -12.15625 C 23 -11.101562 23.46875 -9.679688 23.46875 -7.890625 C 23.46875 -6.347656 23.035156 -4.941406 22.171875 -3.671875 C 21.316406 -2.398438 20.03125 -1.390625 18.3125 -0.640625 C 16.59375 0.0976562 14.503906 0.46875 12.046875 0.46875 Z M 12.046875 0.46875 "/></g></g><g style="fill:#2c3e50;fill-opacity:1;"><g transform="translate(153.261297, 264.806263)"><path style="stroke:none" d="M 12.625 0.3125 C 10.4375 0.3125 8.476562 -0.140625 6.75 -1.046875 C 5.019531 -1.960938 3.664062 -3.226562 2.6875 -4.84375 C 1.71875 -6.457031 1.234375 -8.289062 1.234375 -10.34375 C 1.234375 -12.394531 1.71875 -14.226562 2.6875 -15.84375 C 3.664062 -17.457031 5.019531 -18.71875 6.75 -19.625 C 8.476562 -20.539062 10.4375 -21 12.625 -21 C 14.800781 -21 16.75 -20.539062 18.46875 -19.625 C 20.1875 -18.71875 21.53125 -17.457031 22.5 -15.84375 C 23.476562 -14.226562 23.96875 -12.394531 23.96875 -10.34375 C 23.96875 -8.289062 23.476562 -6.457031 22.5 -4.84375 C 21.53125 -3.226562 20.1875 -1.960938 18.46875 -1.046875 C 16.75 -0.140625 14.800781 0.3125 12.625 0.3125 Z M 12.625 -4.609375 C 14.15625 -4.609375 15.414062 -5.128906 16.40625 -6.171875 C 17.394531 -7.210938 17.890625 -8.601562 17.890625 -10.34375 C 17.890625 -12.09375 17.394531 -13.484375 16.40625 -14.515625 C 15.414062 -15.554688 14.15625 -16.078125 12.625 -16.078125 C 11.082031 -16.078125 9.8125 -15.554688 8.8125 -14.515625 C 7.8125 -13.484375 7.3125 -12.09375 7.3125 -10.34375 C 7.3125 -8.601562 7.8125 -7.210938 8.8125 -6.171875 C 9.8125 -5.128906 11.082031 -4.609375 12.625 -4.609375 Z M 12.625 -4.609375 "/></g></g><g style="fill:#2c3e50;fill-opacity:1;"><g transform="translate(183.838993, 264.806263)"><path style="stroke:none" d="M 8.5 -17.96875 C 9.21875 -18.96875 10.1875 -19.722656 11.40625 -20.234375 C 12.625 -20.742188 14.03125 -21 15.625 -21 L 15.625 -15.46875 C 14.957031 -15.519531 14.503906 -15.546875 14.265625 -15.546875 C 12.546875 -15.546875 11.195312 -15.0625 10.21875 -14.09375 C 9.25 -13.132812 8.765625 -11.691406 8.765625 -9.765625 L 8.765625 0 L 2.765625 0 L 2.765625 -20.703125 L 8.5 -20.703125 Z M 8.5 -17.96875 "/></g></g><g style="fill:#2c3e50;fill-opacity:1;"><g transform="translate(205.801451, 264.806263)"><path style="stroke:none" d="M 16.125 -1 C 15.53125 -0.5625 14.800781 -0.234375 13.9375 -0.015625 C 13.082031 0.203125 12.179688 0.3125 11.234375 0.3125 C 8.773438 0.3125 6.867188 -0.316406 5.515625 -1.578125 C 4.171875 -2.835938 3.5 -4.679688 3.5 -7.109375 L 3.5 -15.625 L 0.3125 -15.625 L 0.3125 -20.234375 L 3.5 -20.234375 L 3.5 -25.28125 L 9.5 -25.28125 L 9.5 -20.234375 L 14.65625 -20.234375 L 14.65625 -15.625 L 9.5 -15.625 L 9.5 -7.1875 C 9.5 -6.320312 9.722656 -5.648438 10.171875 -5.171875 C 10.617188 -4.703125 11.253906 -4.46875 12.078125 -4.46875 C 13.023438 -4.46875 13.832031 -4.722656 14.5 -5.234375 Z M 16.125 -1 "/></g></g><g style="fill:#2c3e50;fill-opacity:1;"><g transform="translate(227.917751, 264.806263)"><path style="stroke:none" d="M 11.125 -21 C 14.320312 -21 16.78125 -20.234375 18.5 -18.703125 C 20.21875 -17.179688 21.078125 -14.882812 21.078125 -11.8125 L 21.078125 0 L 15.46875 0 L 15.46875 -2.578125 C 14.332031 -0.648438 12.226562 0.3125 9.15625 0.3125 C 7.5625 0.3125 6.179688 0.0390625 5.015625 -0.5 C 3.847656 -1.039062 2.957031 -1.785156 2.34375 -2.734375 C 1.726562 -3.679688 1.421875 -4.757812 1.421875 -5.96875 C 1.421875 -7.882812 2.144531 -9.394531 3.59375 -10.5 C 5.039062 -11.601562 7.28125 -12.15625 10.3125 -12.15625 L 15.078125 -12.15625 C 15.078125 -13.46875 14.675781 -14.472656 13.875 -15.171875 C 13.082031 -15.878906 11.894531 -16.234375 10.3125 -16.234375 C 9.207031 -16.234375 8.125 -16.054688 7.0625 -15.703125 C 6 -15.359375 5.09375 -14.894531 4.34375 -14.3125 L 2.1875 -18.5 C 3.320312 -19.300781 4.675781 -19.914062 6.25 -20.34375 C 7.820312 -20.78125 9.445312 -21 11.125 -21 Z M 10.65625 -3.734375 C 11.675781 -3.734375 12.582031 -3.96875 13.375 -4.4375 C 14.175781 -4.914062 14.742188 -5.617188 15.078125 -6.546875 L 15.078125 -8.65625 L 10.96875 -8.65625 C 8.5 -8.65625 7.265625 -7.847656 7.265625 -6.234375 C 7.265625 -5.460938 7.566406 -4.851562 8.171875 -4.40625 C 8.773438 -3.957031 9.601562 -3.734375 10.65625 -3.734375 Z M 10.65625 -3.734375 "/></g></g><g style="fill:#2c3e50;fill-opacity:1;"><g transform="translate(142.633076, 290.292153)"><path style="stroke:none" d="M 5.53125 0.140625 C 4.582031 0.140625 3.671875 -0.00390625 2.796875 -0.296875 C 1.921875 -0.585938 1.234375 -0.96875 0.734375 -1.4375 L 1.390625 -2.828125 C 1.867188 -2.398438 2.476562 -2.050781 3.21875 -1.78125 C 3.96875 -1.507812 4.738281 -1.375 5.53125 -1.375 C 6.5625 -1.375 7.332031 -1.550781 7.84375 -1.90625 C 8.363281 -2.257812 8.625 -2.726562 8.625 -3.3125 C 8.625 -3.738281 8.484375 -4.085938 8.203125 -4.359375 C 7.921875 -4.628906 7.570312 -4.832031 7.15625 -4.96875 C 6.75 -5.113281 6.171875 -5.273438 5.421875 -5.453125 C 4.472656 -5.679688 3.707031 -5.90625 3.125 -6.125 C 2.550781 -6.351562 2.054688 -6.703125 1.640625 -7.171875 C 1.234375 -7.648438 1.03125 -8.289062 1.03125 -9.09375 C 1.03125 -9.757812 1.207031 -10.359375 1.5625 -10.890625 C 1.914062 -11.429688 2.445312 -11.863281 3.15625 -12.1875 C 3.875 -12.507812 4.765625 -12.671875 5.828125 -12.671875 C 6.566406 -12.671875 7.296875 -12.570312 8.015625 -12.375 C 8.734375 -12.1875 9.347656 -11.914062 9.859375 -11.5625 L 9.265625 -10.125 C 8.742188 -10.457031 8.179688 -10.707031 7.578125 -10.875 C 6.984375 -11.050781 6.398438 -11.140625 5.828125 -11.140625 C 4.816406 -11.140625 4.054688 -10.953125 3.546875 -10.578125 C 3.046875 -10.210938 2.796875 -9.738281 2.796875 -9.15625 C 2.796875 -8.726562 2.9375 -8.378906 3.21875 -8.109375 C 3.507812 -7.835938 3.863281 -7.628906 4.28125 -7.484375 C 4.707031 -7.335938 5.285156 -7.179688 6.015625 -7.015625 C 6.953125 -6.785156 7.707031 -6.554688 8.28125 -6.328125 C 8.851562 -6.109375 9.34375 -5.765625 9.75 -5.296875 C 10.164062 -4.828125 10.375 -4.203125 10.375 -3.421875 C 10.375 -2.765625 10.191406 -2.164062 9.828125 -1.625 C 9.472656 -1.082031 8.929688 -0.648438 8.203125 -0.328125 C 7.484375 -0.015625 6.59375 0.140625 5.53125 0.140625 Z M 5.53125 0.140625 "/></g></g><g style="fill:#2c3e50;fill-opacity:1;"><g transform="translate(155.980222, 290.292153)"><path style="stroke:none" d="M 10.015625 -9.484375 L 5.421875 0.953125 C 5.015625 1.910156 4.539062 2.585938 4 2.984375 C 3.457031 3.378906 2.804688 3.578125 2.046875 3.578125 C 1.578125 3.578125 1.125 3.5 0.6875 3.34375 C 0.25 3.195312 -0.109375 2.984375 -0.390625 2.703125 L 0.34375 1.40625 C 0.832031 1.875 1.398438 2.109375 2.046875 2.109375 C 2.460938 2.109375 2.804688 2 3.078125 1.78125 C 3.359375 1.5625 3.613281 1.179688 3.84375 0.640625 L 4.15625 -0.015625 L -0.03125 -9.484375 L 1.75 -9.484375 L 5.0625 -1.890625 L 8.34375 -9.484375 Z M 10.015625 -9.484375 "/></g></g><g style="fill:#2c3e50;fill-opacity:1;"><g transform="translate(168.218129, 290.292153)"><path style="stroke:none" d="M 4.34375 0.109375 C 3.570312 0.109375 2.828125 0.00390625 2.109375 -0.203125 C 1.390625 -0.410156 0.828125 -0.675781 0.421875 -1 L 1.140625 -2.359375 C 1.554688 -2.066406 2.0625 -1.828125 2.65625 -1.640625 C 3.257812 -1.460938 3.863281 -1.375 4.46875 -1.375 C 5.976562 -1.375 6.734375 -1.804688 6.734375 -2.671875 C 6.734375 -2.953125 6.628906 -3.175781 6.421875 -3.34375 C 6.222656 -3.507812 5.96875 -3.628906 5.65625 -3.703125 C 5.351562 -3.785156 4.921875 -3.875 4.359375 -3.96875 C 3.597656 -4.09375 2.972656 -4.226562 2.484375 -4.375 C 2.003906 -4.53125 1.59375 -4.789062 1.25 -5.15625 C 0.90625 -5.53125 0.734375 -6.054688 0.734375 -6.734375 C 0.734375 -7.585938 1.085938 -8.273438 1.796875 -8.796875 C 2.515625 -9.316406 3.476562 -9.578125 4.6875 -9.578125 C 5.320312 -9.578125 5.953125 -9.5 6.578125 -9.34375 C 7.210938 -9.1875 7.734375 -8.976562 8.140625 -8.71875 L 7.40625 -7.359375 C 6.632812 -7.859375 5.722656 -8.109375 4.671875 -8.109375 C 3.941406 -8.109375 3.382812 -7.988281 3 -7.75 C 2.625 -7.507812 2.4375 -7.191406 2.4375 -6.796875 C 2.4375 -6.484375 2.539062 -6.238281 2.75 -6.0625 C 2.96875 -5.882812 3.234375 -5.753906 3.546875 -5.671875 C 3.867188 -5.585938 4.316406 -5.492188 4.890625 -5.390625 C 5.648438 -5.253906 6.265625 -5.109375 6.734375 -4.953125 C 7.203125 -4.804688 7.601562 -4.554688 7.9375 -4.203125 C 8.269531 -3.847656 8.4375 -3.347656 8.4375 -2.703125 C 8.4375 -1.835938 8.070312 -1.148438 7.34375 -0.640625 C 6.613281 -0.140625 5.613281 0.109375 4.34375 0.109375 Z M 4.34375 0.109375 "/></g></g><g style="fill:#2c3e50;fill-opacity:1;"><g transform="translate(179.418354, 290.292153)"><path style="stroke:none" d="M 6.953125 -0.546875 C 6.703125 -0.335938 6.390625 -0.175781 6.015625 -0.0625 C 5.648438 0.0507812 5.273438 0.109375 4.890625 0.109375 C 3.929688 0.109375 3.1875 -0.144531 2.65625 -0.65625 C 2.132812 -1.175781 1.875 -1.910156 1.875 -2.859375 L 1.875 -8.0625 L 0.265625 -8.0625 L 0.265625 -9.484375 L 1.875 -9.484375 L 1.875 -11.5625 L 3.59375 -11.5625 L 3.59375 -9.484375 L 6.3125 -9.484375 L 6.3125 -8.0625 L 3.59375 -8.0625 L 3.59375 -2.9375 C 3.59375 -2.425781 3.71875 -2.03125 3.96875 -1.75 C 4.226562 -1.476562 4.597656 -1.34375 5.078125 -1.34375 C 5.609375 -1.34375 6.054688 -1.492188 6.421875 -1.796875 Z M 6.953125 -0.546875 "/></g></g><g style="fill:#2c3e50;fill-opacity:1;"><g transform="translate(189.062062, 290.292153)"><path style="stroke:none" d="M 10.203125 -4.6875 C 10.203125 -4.550781 10.1875 -4.378906 10.15625 -4.171875 L 2.46875 -4.171875 C 2.570312 -3.335938 2.9375 -2.664062 3.5625 -2.15625 C 4.195312 -1.644531 4.976562 -1.390625 5.90625 -1.390625 C 7.039062 -1.390625 7.953125 -1.773438 8.640625 -2.546875 L 9.59375 -1.4375 C 9.164062 -0.9375 8.628906 -0.550781 7.984375 -0.28125 C 7.347656 -0.0195312 6.632812 0.109375 5.84375 0.109375 C 4.84375 0.109375 3.953125 -0.09375 3.171875 -0.5 C 2.398438 -0.914062 1.800781 -1.492188 1.375 -2.234375 C 0.957031 -2.972656 0.75 -3.804688 0.75 -4.734375 C 0.75 -5.660156 0.953125 -6.492188 1.359375 -7.234375 C 1.773438 -7.972656 2.34375 -8.546875 3.0625 -8.953125 C 3.789062 -9.367188 4.609375 -9.578125 5.515625 -9.578125 C 6.421875 -9.578125 7.226562 -9.367188 7.9375 -8.953125 C 8.644531 -8.546875 9.195312 -7.972656 9.59375 -7.234375 C 10 -6.492188 10.203125 -5.644531 10.203125 -4.6875 Z M 5.515625 -8.125 C 4.691406 -8.125 4 -7.875 3.4375 -7.375 C 2.882812 -6.875 2.5625 -6.21875 2.46875 -5.40625 L 8.546875 -5.40625 C 8.453125 -6.207031 8.128906 -6.859375 7.578125 -7.359375 C 7.023438 -7.867188 6.335938 -8.125 5.515625 -8.125 Z M 5.515625 -8.125 "/></g></g><g style="fill:#2c3e50;fill-opacity:1;"><g transform="translate(202.248191, 290.292153)"><path style="stroke:none" d="M 13.484375 -9.578125 C 14.679688 -9.578125 15.628906 -9.226562 16.328125 -8.53125 C 17.023438 -7.84375 17.375 -6.816406 17.375 -5.453125 L 17.375 0 L 15.65625 0 L 15.65625 -5.265625 C 15.65625 -6.179688 15.441406 -6.867188 15.015625 -7.328125 C 14.597656 -7.796875 13.992188 -8.03125 13.203125 -8.03125 C 12.328125 -8.03125 11.632812 -7.757812 11.125 -7.21875 C 10.613281 -6.675781 10.359375 -5.898438 10.359375 -4.890625 L 10.359375 0 L 8.640625 0 L 8.640625 -5.265625 C 8.640625 -6.179688 8.425781 -6.867188 8 -7.328125 C 7.582031 -7.796875 6.976562 -8.03125 6.1875 -8.03125 C 5.320312 -8.03125 4.628906 -7.757812 4.109375 -7.21875 C 3.597656 -6.675781 3.34375 -5.898438 3.34375 -4.890625 L 3.34375 0 L 1.625 0 L 1.625 -9.484375 L 3.28125 -9.484375 L 3.28125 -8.0625 C 3.625 -8.550781 4.070312 -8.925781 4.625 -9.1875 C 5.1875 -9.445312 5.828125 -9.578125 6.546875 -9.578125 C 7.285156 -9.578125 7.941406 -9.425781 8.515625 -9.125 C 9.085938 -8.820312 9.53125 -8.382812 9.84375 -7.8125 C 10.195312 -8.363281 10.691406 -8.796875 11.328125 -9.109375 C 11.972656 -9.421875 12.691406 -9.578125 13.484375 -9.578125 Z M 13.484375 -9.578125 "/></g></g><g style="fill:#2c3e50;fill-opacity:1;"><g transform="translate(223.395801, 290.292153)"><path style="stroke:none" d="M 4.34375 0.109375 C 3.570312 0.109375 2.828125 0.00390625 2.109375 -0.203125 C 1.390625 -0.410156 0.828125 -0.675781 0.421875 -1 L 1.140625 -2.359375 C 1.554688 -2.066406 2.0625 -1.828125 2.65625 -1.640625 C 3.257812 -1.460938 3.863281 -1.375 4.46875 -1.375 C 5.976562 -1.375 6.734375 -1.804688 6.734375 -2.671875 C 6.734375 -2.953125 6.628906 -3.175781 6.421875 -3.34375 C 6.222656 -3.507812 5.96875 -3.628906 5.65625 -3.703125 C 5.351562 -3.785156 4.921875 -3.875 4.359375 -3.96875 C 3.597656 -4.09375 2.972656 -4.226562 2.484375 -4.375 C 2.003906 -4.53125 1.59375 -4.789062 1.25 -5.15625 C 0.90625 -5.53125 0.734375 -6.054688 0.734375 -6.734375 C 0.734375 -7.585938 1.085938 -8.273438 1.796875 -8.796875 C 2.515625 -9.316406 3.476562 -9.578125 4.6875 -9.578125 C 5.320312 -9.578125 5.953125 -9.5 6.578125 -9.34375 C 7.210938 -9.1875 7.734375 -8.976562 8.140625 -8.71875 L 7.40625 -7.359375 C 6.632812 -7.859375 5.722656 -8.109375 4.671875 -8.109375 C 3.941406 -8.109375 3.382812 -7.988281 3 -7.75 C 2.625 -7.507812 2.4375 -7.191406 2.4375 -6.796875 C 2.4375 -6.484375 2.539062 -6.238281 2.75 -6.0625 C 2.96875 -5.882812 3.234375 -5.753906 3.546875 -5.671875 C 3.867188 -5.585938 4.316406 -5.492188 4.890625 -5.390625 C 5.648438 -5.253906 6.265625 -5.109375 6.734375 -4.953125 C 7.203125 -4.804688 7.601562 -4.554688 7.9375 -4.203125 C 8.269531 -3.847656 8.4375 -3.347656 8.4375 -2.703125 C 8.4375 -1.835938 8.070312 -1.148438 7.34375 -0.640625 C 6.613281 -0.140625 5.613281 0.109375 4.34375 0.109375 Z M 4.34375 0.109375 "/></g></g><g clip-rule="nonzero" clip-path="url(#4d032576e3)"><path style=" stroke:none;fill-rule:evenodd;fill:#0a74da;fill-opacity:1;" d="M 167.800781 104.6875 L 177.601562 111.378906 C 178.105469 110.460938 179.082031 109.839844 180.199219 109.839844 L 195.140625 109.839844 C 196.769531 109.839844 198.101562 111.171875 198.101562 112.800781 L 198.101562 127.746094 C 198.101562 129.371094 196.769531 130.699219 195.140625 130.699219 L 187.902344 130.699219 L 181.609375 143.105469 L 182.867188 143.105469 C 184.960938 143.105469 186.671875 144.816406 186.671875 146.910156 L 186.671875 155.21875 L 207.777344 155.5625 L 207.777344 155.042969 C 207.777344 153.808594 208.789062 152.789062 210.03125 152.789062 L 221.417969 152.789062 C 222.660156 152.789062 223.671875 153.804688 223.671875 155.042969 L 223.671875 166.433594 C 223.671875 167.671875 222.660156 168.6875 221.417969 168.6875 L 210.03125 168.6875 C 208.789062 168.6875 207.777344 167.675781 207.777344 166.433594 L 207.777344 161.175781 L 186.671875 160.832031 L 186.671875 166.128906 C 186.671875 168.226562 184.960938 169.933594 182.867188 169.933594 L 163.652344 169.933594 C 161.554688 169.933594 159.847656 168.226562 159.847656 166.128906 L 159.847656 146.914062 C 159.847656 144.820312 161.554688 143.109375 163.652344 143.109375 L 175.308594 143.109375 L 181.601562 130.703125 L 180.199219 130.703125 C 178.570312 130.703125 177.242188 129.375 177.242188 127.75 L 177.242188 117.941406 L 167.234375 111.105469 C 166.429688 112.574219 164.871094 113.574219 163.089844 113.574219 L 139.253906 113.574219 C 136.65625 113.574219 134.535156 111.449219 134.535156 108.851562 L 134.535156 85.015625 C 134.535156 82.417969 136.660156 80.300781 139.253906 80.300781 L 163.089844 80.300781 C 165.6875 80.300781 167.804688 82.421875 167.804688 85.015625 L 167.804688 104.6875 Z M 115.53125 75.324219 L 102.496094 91.757812 L 102.496094 107.949219 C 102.496094 108.742188 102.21875 109.46875 101.761719 110.042969 L 111.148438 121.261719 L 127.574219 121.261719 C 130.171875 121.261719 132.289062 123.386719 132.289062 125.984375 L 132.289062 149.820312 C 132.289062 152.417969 130.167969 154.539062 127.574219 154.539062 L 103.738281 154.539062 C 101.136719 154.539062 99.019531 152.417969 99.019531 149.820312 L 99.019531 125.984375 C 99.019531 123.386719 101.140625 121.261719 103.738281 121.261719 L 103.816406 121.261719 L 95.503906 111.332031 L 82.03125 111.332031 C 80.175781 111.332031 78.65625 109.8125 78.65625 107.953125 L 78.65625 90.871094 C 78.65625 89.015625 80.175781 87.496094 82.03125 87.496094 L 98.699219 87.496094 L 108.476562 75.167969 C 106.464844 74.628906 104.972656 72.785156 104.972656 70.609375 L 104.972656 46.769531 C 104.972656 44.171875 107.097656 42.050781 109.691406 42.050781 L 133.527344 42.050781 C 136.125 42.050781 138.246094 44.171875 138.246094 46.769531 L 138.246094 70.605469 C 138.246094 73.203125 136.121094 75.324219 133.527344 75.324219 Z M 232.660156 192.78125 L 247.277344 176.621094 L 247.273438 176.429688 L 247.273438 149.035156 C 247.273438 147.574219 247.859375 146.246094 248.804688 145.269531 L 241.109375 136.34375 C 240.851562 136.390625 240.582031 136.410156 240.308594 136.410156 L 216.46875 136.410156 C 213.871094 136.410156 211.753906 134.285156 211.753906 131.6875 L 211.753906 107.851562 C 211.753906 105.253906 213.875 103.136719 216.46875 103.136719 L 240.308594 103.136719 C 242.910156 103.136719 245.027344 105.257812 245.027344 107.851562 L 245.027344 131.6875 C 245.027344 131.878906 245.015625 132.070312 244.996094 132.257812 L 254.785156 143.617188 L 280.078125 143.617188 C 283.058594 143.617188 285.496094 146.058594 285.496094 149.035156 L 285.496094 176.425781 C 285.496094 179.40625 283.054688 181.84375 280.078125 181.84375 L 252.6875 181.84375 C 251.921875 181.84375 251.183594 181.679688 250.519531 181.390625 L 237.078125 196.25 L 237.078125 212.390625 C 237.078125 214.171875 235.617188 215.625 233.839844 215.625 L 217.46875 215.625 C 215.6875 215.625 214.234375 214.171875 214.234375 212.390625 L 214.234375 196.019531 C 214.234375 194.238281 215.691406 192.78125 217.46875 192.78125 Z M 277.855469 99.910156 L 268.960938 82.761719 L 257.167969 82.761719 C 255.269531 82.761719 253.71875 81.210938 253.71875 79.316406 L 253.71875 61.890625 C 253.71875 59.992188 255.269531 58.441406 257.167969 58.441406 L 274.59375 58.441406 C 276.492188 58.441406 278.039062 59.992188 278.039062 61.890625 L 278.039062 79.316406 C 278.039062 80.988281 276.839844 82.390625 275.253906 82.699219 L 284.179688 99.910156 L 292.722656 99.910156 C 294.621094 99.910156 296.171875 101.457031 296.171875 103.355469 L 296.171875 120.78125 C 296.171875 122.679688 294.621094 124.230469 292.722656 124.230469 L 275.296875 124.230469 C 273.402344 124.230469 271.851562 122.679688 271.851562 120.78125 L 271.851562 103.355469 C 271.851562 101.457031 273.402344 99.910156 275.296875 99.910156 Z M 167.304688 23.175781 L 191.140625 23.175781 C 193.742188 23.175781 195.859375 25.300781 195.859375 27.894531 L 195.859375 51.734375 C 195.859375 54.332031 193.738281 56.449219 191.140625 56.449219 L 186.695312 56.449219 L 191.652344 68.625 L 204.078125 68.625 C 204.300781 68.625 204.515625 68.648438 204.722656 68.6875 L 212.226562 62.351562 C 211.324219 61.492188 210.757812 60.277344 210.757812 58.933594 L 210.757812 35.097656 C 210.757812 32.5 212.878906 30.375 215.472656 30.375 L 239.316406 30.375 C 241.914062 30.375 244.03125 32.5 244.03125 35.097656 L 244.03125 58.933594 C 244.03125 61.53125 241.910156 63.652344 239.316406 63.652344 L 219.398438 63.652344 L 207.519531 73.679688 L 207.519531 89.5 C 207.519531 91.398438 205.96875 92.945312 204.074219 92.945312 L 186.648438 92.945312 C 184.75 92.945312 183.199219 91.398438 183.199219 89.5 L 183.199219 72.074219 C 183.199219 70.523438 184.226562 69.207031 185.636719 68.773438 L 180.617188 56.449219 L 167.300781 56.449219 C 164.703125 56.449219 162.582031 54.328125 162.582031 51.734375 L 162.582031 27.894531 C 162.589844 25.300781 164.710938 23.175781 167.304688 23.175781 Z M 167.304688 23.175781 "/></g></g></svg>